<svg xmlns="http://www.w3.org/2000/svg" width="1200" height="630" viewBox="0 0 1200 630">
  <rect width="1200" height="630" fill="#0F1115"/>
  <g transform="translate(300 186) scale(1.0417)">
    <path d="M0 159.8V14H27.2V159.8ZM50.4 159.8V52.9H77.6V159.8ZM100.8 159.8V14H128.4V98.9L137.3 88.8L171 52.9H204.6L163.3 95L205.6 159.8H173.6L150.7 124.2L144.3 113.2L128.4 128.8V159.8ZM235 159.8 209.6 52.9H237.4L249.6 108.2L254.8 135.5H256L260.5 108.2L271.3 52.9H301.7L312.7 108.2L317.3 135.9H318.5L323.5 108.2L335.7 52.9H362.5L336.7 159.8H300.9L290.7 112.3L286 84.4H285L280.4 112.3L270.7 159.8ZM374.8 159.8V52.9H402V159.8ZM425.2 159.8V52.9H452.4V159.8ZM513.8 161.6Q504.1 161.6 496 157.9Q487.9 154.1 482.1 147Q476.3 139.9 473.2 129.6Q470.1 119.4 470.1 106.3Q470.1 88.8 475.6 76.4Q481.1 64 490.9 57.5Q500.7 51 513.8 51Q522 51 528.8 53.5Q535.7 56.1 540.5 60.7Q545.4 65.3 547.6 71.6H548.8V14H576V159.8H550.1L549.1 141H547.6Q544.2 150.3 535.2 156Q526.1 161.6 513.8 161.6ZM523.5 139.5Q531.9 139.5 537.5 135.8Q543.1 132.1 545.9 125.8Q548.8 119.5 548.8 111.8V100.8Q548.8 92.8 545.8 86.5Q542.8 80.2 537.3 76.6Q531.8 73 524.1 73Q515.5 73 509.7 77Q503.8 81.1 500.9 88.5Q497.9 96 497.9 106.3Q497.9 116.4 500.8 124Q503.6 131.5 509.3 135.5Q515 139.5 523.5 139.5Z" fill="#E8EAF0"/>
    <path d="M64 0C66.5 8.4 77.6 18.1 77.6 26.5A13.6 13.6 0 0 1 50.4 26.5C50.4 18.1 61.6 8.4 64 0ZM388.4 0C390.9 8.4 402 18.1 402 26.5A13.6 13.6 0 0 1 374.8 26.5C374.8 18.1 386 8.4 388.4 0ZM438.8 0C441.3 8.4 452.4 18.1 452.4 26.5A13.6 13.6 0 0 1 425.2 26.5C425.2 18.1 436.4 8.4 438.8 0Z" fill="#06B6D4"/>
  </g>
  <g transform="translate(415.5 452)" aria-label="Software studio, Beirut">
    <path d="M11.1 0.3Q7.9 0.3 5.7 -0.7Q3.6 -1.7 2.5 -3.6Q1.4 -5.4 1.4 -7.7H4.8Q4.8 -6.1 5.5 -4.9Q6.2 -3.6 7.6 -3Q9 -2.3 11.2 -2.3Q13 -2.3 14.4 -2.8Q15.8 -3.2 16.5 -4.2Q17.3 -5.1 17.3 -6.5Q17.3 -7.7 16.9 -8.4Q16.6 -9.2 15.8 -9.7Q15 -10.2 13.7 -10.6Q12.4 -11 10.5 -11.3Q8.4 -11.7 6.8 -12.2Q5.2 -12.7 4.1 -13.5Q3 -14.3 2.5 -15.4Q2 -16.5 2 -18.1Q2 -20.2 3 -21.8Q4.1 -23.4 6.1 -24.2Q8.1 -25.1 10.9 -25.1Q13.8 -25.1 15.8 -24.2Q17.7 -23.3 18.8 -21.6Q19.9 -20 19.9 -17.9H16.5Q16.5 -19.4 15.8 -20.4Q15 -21.5 13.8 -22Q12.5 -22.5 10.8 -22.5Q9.1 -22.5 7.9 -22Q6.7 -21.5 6 -20.7Q5.4 -19.8 5.4 -18.5Q5.4 -17.2 6 -16.4Q6.7 -15.6 8.2 -15.1Q9.6 -14.7 12.2 -14.2Q13.9 -13.9 15.4 -13.5Q16.9 -13.1 18.1 -12.3Q19.3 -11.5 20 -10.2Q20.7 -8.9 20.7 -6.8Q20.7 -4.7 19.6 -3.1Q18.5 -1.5 16.4 -0.6Q14.2 0.3 11.1 0.3ZM32.7 0.3Q30.7 0.3 29.1 -0.3Q27.5 -1 26.4 -2.2Q25.2 -3.4 24.6 -5.1Q23.9 -6.8 23.9 -8.9Q23.9 -11.7 25 -13.8Q26.1 -15.9 28 -17Q30 -18.2 32.7 -18.2Q34.6 -18.2 36.2 -17.6Q37.8 -16.9 38.9 -15.7Q40.1 -14.5 40.7 -12.8Q41.3 -11.1 41.3 -8.9Q41.3 -6.2 40.3 -4.1Q39.2 -2.1 37.3 -0.9Q35.3 0.3 32.7 0.3ZM32.6 -2.3Q34.3 -2.3 35.5 -3.1Q36.8 -3.9 37.5 -5.4Q38.1 -6.9 38.1 -8.9Q38.1 -10.5 37.8 -11.7Q37.4 -13 36.7 -13.8Q35.9 -14.7 34.9 -15.1Q33.9 -15.6 32.7 -15.6Q31 -15.6 29.8 -14.8Q28.5 -14 27.8 -12.5Q27.1 -11.1 27.1 -8.9Q27.1 -7.4 27.5 -6.2Q27.9 -4.9 28.6 -4.1Q29.3 -3.2 30.4 -2.8Q31.4 -2.3 32.6 -2.3ZM46.6 0V-15.4H43.6V-17.9H46.6V-20.7Q46.6 -22.7 47.8 -23.8Q48.9 -24.8 51 -24.8H53.6V-22.4H51.7Q50.6 -22.4 50.1 -21.9Q49.7 -21.3 49.7 -20.4V-17.9H53.3V-15.4H49.7V0ZM62.3 0Q60.3 0 59.3 -0.9Q58.3 -1.9 58.3 -4V-15.3H54.9V-17.9H58.3V-23.2L61.4 -23.6V-17.9H65.5V-15.3H61.5V-4.5Q61.5 -3.5 61.9 -3.1Q62.4 -2.6 63.3 -2.6H65.6V0ZM72 0 67.4 -17.9H70.6L73.1 -7.6L74.1 -2.8H74.3L75.3 -7.6L77.6 -17.9H81.3L83.7 -7.6L84.7 -2.8H84.9L85.9 -7.6L88.4 -17.9H91.4L86.9 0H82.8L80.4 -9.6L79.4 -14.4H79.3L78.3 -9.6L76.2 0ZM101.1 0.3Q99.5 0.3 98.1 -0.3Q96.7 -1 95.8 -2.2Q94.8 -3.4 94.2 -5.1Q93.7 -6.8 93.7 -9Q93.7 -11.9 94.6 -13.9Q95.6 -16 97.2 -17.1Q98.9 -18.2 101.1 -18.2Q102.6 -18.2 103.9 -17.7Q105.1 -17.3 106 -16.4Q106.9 -15.5 107.3 -14.3H107.5L107.6 -17.9H110.5V0H107.6L107.5 -3.6H107.3Q106.6 -1.9 105 -0.8Q103.4 0.3 101.1 0.3ZM102.1 -2.3Q103.8 -2.3 105 -3.1Q106.2 -3.9 106.8 -5.1Q107.4 -6.4 107.4 -7.9V-10Q107.4 -11.6 106.8 -12.8Q106.2 -14.1 105 -14.9Q103.8 -15.6 102.2 -15.6Q100.5 -15.6 99.4 -14.8Q98.2 -14.1 97.5 -12.6Q96.9 -11.1 96.9 -9Q96.9 -6.9 97.5 -5.4Q98.2 -3.9 99.3 -3.1Q100.5 -2.3 102.1 -2.3ZM116 0V-17.9H118.8L118.9 -14.7H119.1Q119.6 -16.4 121.1 -17.3Q122.5 -18.1 124.3 -18.1Q124.6 -18.1 124.9 -18.1Q125.2 -18.1 125.4 -18.1V-15.1Q125.2 -15.2 124.9 -15.2Q124.6 -15.2 124.3 -15.2Q122.7 -15.2 121.6 -14.6Q120.5 -14.1 119.8 -13Q119.2 -12 119.1 -10.5V0ZM136 0.3Q133.4 0.3 131.6 -0.8Q129.7 -2 128.7 -4Q127.8 -6.1 127.8 -8.9Q127.8 -11.7 128.7 -13.8Q129.7 -15.9 131.5 -17.1Q133.3 -18.2 135.9 -18.2Q138.7 -18.2 140.5 -16.9Q142.3 -15.7 143.1 -13.5Q143.9 -11.3 143.7 -8.4H130.8Q130.9 -6.3 131.5 -4.9Q132.1 -3.5 133.3 -2.8Q134.5 -2.1 136 -2.1Q137.8 -2.1 139 -2.9Q140.2 -3.8 140.6 -5.2H143.5Q143.3 -3.4 142.2 -2.2Q141.2 -1 139.6 -0.3Q138 0.3 136 0.3ZM130.9 -10.1 130.5 -10.5H141L140.6 -10.1Q140.7 -12.1 140.1 -13.3Q139.5 -14.6 138.4 -15.2Q137.3 -15.8 135.9 -15.8Q134.4 -15.8 133.3 -15.1Q132.2 -14.5 131.6 -13.2Q130.9 -12 130.9 -10.1ZM162.2 0.3Q160.5 0.3 159.2 -0.1Q157.8 -0.5 156.8 -1.2Q155.9 -2 155.4 -3Q154.8 -4.1 154.8 -5.3H157.9Q158 -4.2 158.5 -3.4Q159.1 -2.7 160.1 -2.3Q161 -2 162.3 -2Q164.2 -2 165.3 -2.7Q166.3 -3.5 166.3 -4.8Q166.3 -5.8 165.9 -6.4Q165.4 -6.9 164.5 -7.3Q163.5 -7.6 162 -7.8Q159.7 -8.1 158.2 -8.7Q156.8 -9.2 156 -10.2Q155.3 -11.3 155.3 -12.9Q155.3 -14.5 156.1 -15.7Q157 -16.9 158.6 -17.6Q160.1 -18.2 162.2 -18.2Q164.3 -18.2 165.9 -17.6Q167.4 -16.9 168.2 -15.7Q169.1 -14.5 169.1 -12.8H166.1Q166 -13.9 165.5 -14.6Q165 -15.3 164.2 -15.6Q163.3 -15.9 162.2 -15.9Q160.4 -15.9 159.4 -15.2Q158.4 -14.4 158.4 -13.2Q158.4 -12.3 158.9 -11.7Q159.4 -11.2 160.4 -10.9Q161.5 -10.6 163.1 -10.3Q165.1 -10 166.5 -9.5Q168 -8.9 168.7 -7.9Q169.5 -6.8 169.5 -5.1Q169.5 -3.3 168.6 -2.1Q167.7 -0.9 166 -0.3Q164.4 0.3 162.2 0.3ZM179.4 0Q177.4 0 176.4 -0.9Q175.4 -1.9 175.4 -4V-15.3H172V-17.9H175.4V-23.2L178.6 -23.6V-17.9H182.6V-15.3H178.6V-4.5Q178.6 -3.5 179 -3.1Q179.5 -2.6 180.4 -2.6H182.7V0ZM192.9 0.3Q190.9 0.3 189.4 -0.5Q187.9 -1.3 187.2 -2.9Q186.4 -4.5 186.4 -6.9V-17.9H189.5V-7.7Q189.5 -6 190 -4.8Q190.4 -3.6 191.4 -2.9Q192.4 -2.3 194 -2.3Q195.5 -2.3 196.7 -3.1Q197.9 -3.8 198.5 -5.2Q199.1 -6.6 199.1 -8.3V-17.9H202.3V0H199.3L199.1 -3.7H199Q198.3 -1.8 196.6 -0.8Q195 0.3 192.9 0.3ZM214.1 0.3Q212.5 0.3 211.1 -0.3Q209.8 -1 208.8 -2.2Q207.8 -3.4 207.3 -5.1Q206.7 -6.8 206.7 -9Q206.7 -11.9 207.7 -13.9Q208.6 -16 210.3 -17.1Q211.9 -18.2 214.1 -18.2Q215.7 -18.2 216.9 -17.7Q218.1 -17.3 219 -16.4Q219.9 -15.5 220.3 -14.3H220.4V-24.8H223.6V0H220.6L220.5 -3.6H220.3Q219.7 -1.9 218.1 -0.8Q216.4 0.3 214.1 0.3ZM215.2 -2.3Q216.9 -2.3 218 -3.1Q219.2 -3.9 219.8 -5.1Q220.4 -6.4 220.4 -7.9V-10Q220.4 -11.6 219.8 -12.8Q219.2 -14.1 218 -14.9Q216.9 -15.6 215.2 -15.6Q213.6 -15.6 212.4 -14.8Q211.2 -14.1 210.6 -12.6Q209.9 -11.1 209.9 -9Q209.9 -6.9 210.6 -5.4Q211.2 -3.9 212.4 -3.1Q213.5 -2.3 215.2 -2.3ZM229 0V-17.9H232.1V0ZM230.6 -20.8Q229.7 -20.8 229.2 -21.3Q228.7 -21.7 228.7 -22.5Q228.7 -23.3 229.2 -23.7Q229.7 -24.2 230.6 -24.2Q231.4 -24.2 231.9 -23.7Q232.4 -23.3 232.4 -22.5Q232.4 -21.7 231.9 -21.3Q231.4 -20.8 230.6 -20.8ZM245.2 0.3Q243.2 0.3 241.6 -0.3Q240 -1 238.9 -2.2Q237.7 -3.4 237.1 -5.1Q236.5 -6.8 236.5 -8.9Q236.5 -11.7 237.5 -13.8Q238.6 -15.9 240.6 -17Q242.5 -18.2 245.2 -18.2Q247.1 -18.2 248.7 -17.6Q250.3 -16.9 251.5 -15.7Q252.6 -14.5 253.2 -12.8Q253.8 -11.1 253.8 -8.9Q253.8 -6.2 252.8 -4.1Q251.7 -2.1 249.8 -0.9Q247.9 0.3 245.2 0.3ZM245.2 -2.3Q246.8 -2.3 248.1 -3.1Q249.3 -3.9 250 -5.4Q250.7 -6.9 250.7 -8.9Q250.7 -10.5 250.3 -11.7Q249.9 -13 249.2 -13.8Q248.5 -14.7 247.5 -15.1Q246.5 -15.6 245.2 -15.6Q243.5 -15.6 242.3 -14.8Q241 -14 240.3 -12.5Q239.6 -11.1 239.6 -8.9Q239.6 -7.4 240 -6.2Q240.4 -4.9 241.1 -4.1Q241.9 -3.2 242.9 -2.8Q243.9 -2.3 245.2 -2.3ZM256.6 4.7Q257.8 3.4 258.6 2.1Q259.3 0.7 259.4 -0.3L259.7 -0.2Q259.6 -0.1 259.4 0Q259.2 0.1 259 0.1Q258.2 0.1 257.7 -0.3Q257.3 -0.8 257.3 -1.5Q257.3 -2.2 257.8 -2.7Q258.3 -3.2 259.1 -3.2Q259.9 -3.2 260.5 -2.6Q261 -2.1 261 -1Q261 -0.2 260.8 0.6Q260.5 1.4 260.1 2.2Q259.7 3 259.3 3.7Q258.8 4.3 258.4 4.7ZM273.8 0V-24.8H285.1Q288.7 -24.8 290.6 -23Q292.5 -21.3 292.5 -18.4Q292.5 -17.1 292 -15.9Q291.5 -14.8 290.6 -14Q289.6 -13.2 288.2 -12.9L288.2 -12.7Q289.9 -12.4 291 -11.6Q292 -10.8 292.6 -9.6Q293.1 -8.4 293.1 -6.9Q293.1 -4.7 292.1 -3.2Q291.1 -1.6 289.2 -0.8Q287.4 0 284.7 0ZM277 -2.6H284.4Q287.1 -2.6 288.5 -3.9Q289.8 -5.2 289.8 -7.1Q289.8 -9.2 288.5 -10.3Q287.2 -11.4 284.8 -11.4H276.6V-14H284.7Q286.2 -14 287.2 -14.5Q288.2 -15 288.7 -15.9Q289.2 -16.8 289.2 -18Q289.2 -20 287.9 -21.1Q286.5 -22.2 284.3 -22.2H277ZM304.6 0.3Q302 0.3 300.1 -0.8Q298.3 -2 297.3 -4Q296.4 -6.1 296.4 -8.9Q296.4 -11.7 297.3 -13.8Q298.3 -15.9 300.1 -17.1Q301.9 -18.2 304.5 -18.2Q307.2 -18.2 309.1 -16.9Q310.9 -15.7 311.7 -13.5Q312.5 -11.3 312.3 -8.4H299.4Q299.5 -6.3 300.1 -4.9Q300.7 -3.5 301.9 -2.8Q303 -2.1 304.6 -2.1Q306.4 -2.1 307.6 -2.9Q308.8 -3.8 309.1 -5.2H312.1Q311.8 -3.4 310.8 -2.2Q309.7 -1 308.2 -0.3Q306.6 0.3 304.6 0.3ZM299.4 -10.1 299.1 -10.5H309.5L309.2 -10.1Q309.3 -12.1 308.7 -13.3Q308.1 -14.6 307 -15.2Q305.9 -15.8 304.5 -15.8Q303 -15.8 301.9 -15.1Q300.8 -14.5 300.1 -13.2Q299.5 -12 299.4 -10.1ZM316.5 0V-17.9H319.6V0ZM318.1 -20.8Q317.2 -20.8 316.7 -21.3Q316.2 -21.7 316.2 -22.5Q316.2 -23.3 316.7 -23.7Q317.2 -24.2 318.1 -24.2Q318.9 -24.2 319.4 -23.7Q319.9 -23.3 319.9 -22.5Q319.9 -21.7 319.4 -21.3Q318.9 -20.8 318.1 -20.8ZM325 0V-17.9H327.8L328 -14.7H328.1Q328.7 -16.4 330.2 -17.3Q331.6 -18.1 333.4 -18.1Q333.7 -18.1 334 -18.1Q334.2 -18.1 334.5 -18.1V-15.1Q334.3 -15.2 334 -15.2Q333.7 -15.2 333.4 -15.2Q331.8 -15.2 330.7 -14.6Q329.5 -14.1 328.9 -13Q328.3 -12 328.2 -10.5V0ZM344.2 0.3Q342.2 0.3 340.8 -0.5Q339.3 -1.3 338.5 -2.9Q337.8 -4.5 337.8 -6.9V-17.9H340.9V-7.7Q340.9 -6 341.4 -4.8Q341.8 -3.6 342.8 -2.9Q343.8 -2.3 345.4 -2.3Q346.9 -2.3 348.1 -3.1Q349.2 -3.8 349.9 -5.2Q350.5 -6.6 350.5 -8.3V-17.9H353.7V0H350.7L350.5 -3.7H350.3Q349.7 -1.8 348 -0.8Q346.4 0.3 344.2 0.3ZM364.6 0Q362.7 0 361.7 -0.9Q360.7 -1.9 360.7 -4V-15.3H357.3V-17.9H360.7V-23.2L363.8 -23.6V-17.9H367.9V-15.3H363.8V-4.5Q363.8 -3.5 364.3 -3.1Q364.8 -2.6 365.7 -2.6H367.9V0Z" fill="#A3ABB8"/>
  </g>
</svg>
